<?xml version="1.0" encoding="UTF-8"?>
<svg id="b" data-name="Layer 2" xmlns="http://www.w3.org/2000/svg" viewBox="0 0 1006.376260438296413 398.91517000996555">
  <g id="c" data-name="Layer 1">
    <g>
      <path d="m353.17409553073594,294.189707462689512c1.964921167243119,1.3818126336555,4.253772979582209,2.364783201919636,5.796398564140873,4.43798902758499-1.56963250575518,1.303243150719936-3.284724411002571-2.179831491121149-4.195095413776471.140919936282444-.704557535596905,1.796021697060496,1.113349657682193,2.729787441969165,2.63820432231023,3.44923681650107.57043738518496.269181117755579,1.096035965538249.737828912755504,1.50357833167709,1.229877146321087,3.708513604452492,4.477456347247426,7.511002759750227,4.145894346447676,9.95244672503668-.960087434585148.330819543732105-.691880067195598.559890664265367-2.009120879476541.187737728724642-2.369438945872389-3.493189799335596-3.382017611311312-3.765971896164046-8.788827397107525-8.37802856846065-11.693190022502677-8.480478074262464-5.340412182478758-16.590113932636086-11.295078269889927-24.612967957322326-17.314316178675654-2.169545842178195-1.627684601939109-5.564401185780298-2.736512405459507-4.611721371920794-7.227083952995599.337738924219593-1.591960135261616-2.80487909105068-5.680737936603691-5.411382286901244-4.300325069103565-3.568327565419168,1.889775599818677-4.54725225416496-.626334495453193-5.198497029973623-2.238378232086689-1.930476674067904-4.778679938099231-4.047868066847514-9.147897845843545-9.400877606465656-10.824726411743541-1.861862024392394-.58324604160407-1.09749909445236-3.066233409464985-2.968932420486453-3.573055261918853.904091741186676-.971833298415731,2.079837750662591-.879889962749075,2.683988064564801-.322996040518774,5.321003594634021,4.904734966396063,11.314406370619508,8.760299554254743,17.791739034772945,11.948206115353969,2.409438020300513,1.185845371801406,4.876547705278426,2.275259027326683,6.20339225693624,5.057415981355007.454149118406349.952236572229594,1.519855640840433,3.2782523375663,3.743019061331324,1.683066654204595.148202766205031-.106290938765596,1.052111616277216.417434611506906,1.02964649108344.554033530519519-.942742729987913,5.740045420043316,4.273647147325391,4.079618461928476,6.741610324170324,5.185981459824688,2.446107688698248,1.096595064500434,5.378248513377912.653629935495701,3.726223560676772,4.864278681514406-.457349712904943,1.165670481335837,1.224516973263235,3.441933688731297,2.648324297297222,1.672294540741859,2.263308020057593-2.813134387655737,4.11303826720723-.926888632922783,6.053543470703517-.231539580036042,1.416003969828125.507354372184636,3.094487170384127,1.578997083468494,4.190675545183694.704295384406578,2.20167371457228-1.756797814990932,2.88702768317853-.892989948188188,3.810444918765825,1.144187113808584.436286752919841.962460951110188,1.733899208156799,2.990448243994251,2.264527294150867-.142654429124377.239800732567346-1.415680888690986.967402548552855-.804287375471176,1.691529433368487-.483771355426143,3.468133716691227,1.534874019853305,6.506656206130174,4.537463713766556,5.50170001546212,7.863003803649917-1.50708374469923,4.987001657766086,1.159255327346727,9.580364728677523-.132443648531989,14.402954722499999-.734216377948542,2.741442016704241.976638549819654,3.139371191122336,3.046264879940281,1.420214913850941.274702453526515.340021457133844.549374425198948.680042914267688.8240463968732,1.02009480110064-.307257071853201.720575273395298-.432537485078683,1.62789760983469-.951155721241776,2.131569988434421-3.507028560309664,3.406117932956477-4.584714450724277,6.935202279752048-1.223114808052742,11.14387309533231.529957485242448.663489157988806.644203467910302,2.110360488200968,1.581032718539973,2.010155489246245.785578299186454-.084016399065149,1.686347518465482-1.051163523829018,2.148086618111847-1.85061257714915,1.827143194545897-3.163380223670174,3.501633272440813-6.41455012908591,5.232728150180264-9.633160256522387.208465388334844.197945192290717.43397013214144.374163579463129.676544713272961.528685591216345-.867757373166569,4.016659414603055-2.12364017251457,7.919968200261792-3.968859105514639,11.58248677737356-.974078074219506,1.933290069455325-1.052690771472953,3.572933543122417.771434719689751,4.780962165528763,3.122774329379354,2.06800234712864,4.546154907480741,4.240652429276452,1.755602287042166,7.714993747491462-.453082253573484.564075331205458-1.546466297956613,1.806033068047327-.312865732688806,3.668026352637753-4.69417478257219-5.362808440975641-6.597979835819388-.899288895889185-7.708647090494196,1.85797656431896-2.696028396249858,6.693042734748815-5.529072718886709,13.47156249411637-3.406164110829195,21.11179047105361.686176978619187,2.469430936936988.537456020924765,5.347989177540512.027006921196516,7.890603540681695-.231113404642201,1.151185944589088.27832979395771,5.115141120446424-3.577411157424649,2.934518457150261-.761253780998231-.430519382096463-2.064871161152041.621800470293238-1.637485109122281,1.731358586588613.938749607327736,2.437236315348855-1.387777774537426,3.531092706934942-1.753102775148363,4.921273507827209-1.071040846598407,4.075540882256973-5.733697393823604,5.425767488302881-6.25301671258876,9.710816848486502-.975053493496489-3.479057921567801.682915420416066-7.354401813803634-3.167399761244269-10.145322521157141-2.831703121133614-2.052544060014043-4.196467097133791-2.562271948725538-5.487404026702279,1.012548235737995-.319602222062713.884956507641618-.853613793668046,1.692773728200336-1.642575578467586,3.220527198476702-.139515438281705-1.466772353389388-.484722416330442-2.309766306045276-.235228454711432-2.903936609605807,2.488446981634297-5.926123029707014-1.373634195039813-8.596572558539265-5.556780722688927-11.226124571854598-2.095109158699415-1.316966944988962-4.034395088101519-2.880627460137475-6.048239628391457-4.326951055769314-1.582130065225101-1.136184102959305-3.572655988456063-1.837010501676559-1.736429201903775-4.583290840528207,1.38250441407763-2.06766762044208-1.086495145747904-3.658075841052778-2.050788545358046-5.11882311402951-1.899293739097629-2.877097615051753-4.664180639844744-4.963601219200427-7.86218418086446-6.586721366285929-4.128492566355817-2.095267357473858-4.156200570157125.146945016691461-3.831599324306808,3.820053129071312-6.700551269032985-5.754012651905214-13.028370447329507-11.187144127376087-19.355366615611274-16.621279782913916-16.204213681678993-13.91757059302472-32.427996712575805-27.812531919660614-48.596912409213473-41.770908739106744-3.637856670668043-3.140497089987548-7.084195862917113-6.502187662335928-10.616265264946378-9.764616556398323-.243931023561345-.225331921432371-.585632588588851-.431949577949126-.683631743947444-.715523943355947-5.83457708422884-16.884374960860441-21.283130404818621-24.4187684445169-33.823699768728147-34.804257365389276-2.508930786424571-2.077755065673045-4.012021408463625-1.382786384025167-5.494414852746559.930798849252824-4.789872558075331,7.475542445703468-9.182155074810908,15.242418830066526-14.438156119274026,22.37529243481913-11.881963220755097,16.124819242986632-21.657721888549531,33.963439136216039-35.429636160651171,48.468485499011877-14.332597464529499,15.095565102474211-28.440421749709458,30.567332574246393-44.688003486841808,43.80291275226773-11.598916360143448,9.448756280304224-22.125069649031502,20.071338201290928-32.356996857952254,30.954976510385677-2.675620796089788,2.846059322024303-4.54069103544316,6.442180295818616-6.873855840661236,9.623787909215025-.768744696216345,1.048333561813706-1.790206809941992,2.155335583391206-3.325608195488712,1.6066272502012-1.506344559778881-.538392665210267-.688104955781455-1.957207812904016-.865707468594337-2.987983438370065-.661418094035071-3.838554386091346-3.009244670241969-7.62839082400933-.301297869715199-11.575913962378763.460855125926173-.671796465827356-.09313729990572-1.23955379061772-.590646853304861-1.697764198845107-.993586459734615-.915021050295763-1.35002600038024.22804016464579-1.922017960036101.623139377054031-.268811835555425.185712453272572-.51678932501909.434536102367929-.70065585849261.704660540795885-2.331473062413352,3.425288643353269-2.62096683479831,9.270651251792515-9.268917857341876,7.106886641766323-.819908485414999-4.717303235123836-2.519626106373835-6.133775295991654-6.330387274358145-4.464980170640047.986076493358269-8.462681882738252,2.478071721136075-16.634881858386507,6.050598161718881-24.307091449021755.754711613433756-1.620746630558642,2.20349500525117-3.566908462709762-.092497181005456-4.7068049889549-2.57451249179212-1.278169078705105-2.417519521410213,1.843978902757954-3.563557155524904,2.916199778323062-.708924060947538.663276150095044.466650488109735,2.819920210544296-1.644065379001404,2.268229766850709-1.356808212532997-.354658142376138-1.759458241366701-1.378526226159011-1.813456842834057-2.976937457618988-.124655535251804-3.689844446855204.945002197295253-7.182504443893777,1.321007276928867-10.777742956417569.130595686232482-1.2487131300295,1.321083481559981-2.788121175039123-.559128617956958-3.151938656828861-1.649449236176224-.319177113287878-2.546667319655171,1.217766126101196-2.539633632221921,2.878679959401779.011251613755121,2.65718218004622.042800330954378,5.280070089269429-3.472462139726304,7.745910321722477,2.15504791114563-6.406973134024156-.273791808187525-12.927327326688101,5.090781784174396-17.56432658603444.804667559230438-.695531631081394-1.763893350886065-9.974794487705367-2.792526320379693-10.273401124437441-1.358743810157648-.394460188725134-1.69182663142783,1.417810967624973-2.876042785632308,1.518624560563694-.000015240924768-.000243437592871.080517813026745.1206841864132.080517813026745.1206841864132,2.17195009828356-7.327867116235211-.664508191818641-13.069555740026772-5.661131534034212-18.205084758830708-1.595820227168588-1.640191208251053-2.867641225072475-3.590613198270148-4.403088333398046-5.295528376387665-.513493474732059-.570130841315404-.952462630660193-1.967979926368571-2.232327027358224-.845641336472909-1.160310761483743,1.01747784698091-.171624259516648,1.612926197904017.341629170628039,2.421625879735075.688169729717629,1.084331895786818,1.178169316739513,2.29394286254319,1.753243753715651,3.449784551085031-.302901977196598.169280415790126-.60581157485467.338560831580253-.90872117251547.507841247370379-5.323929852461333-6.359076787724916-8.544554738168699-13.807506371578711-11.38501377139346-21.492344287315063-.669227163589312-1.810597522904573-.03863003252809-1.539347185613224,1.284229016931931-2.165955548356578,1.996660396019251-.945815905732161,1.754512560819421-3.740023020582157,2.875741777339499-5.557649803966342.678325996519561-1.099577175007653.848809091688963-2.721327985635071,1.77079939556279-3.427601300480092,6.765557629435534-5.182664622627271,11.279832329571946-12.394746733994907,17.040757638022114-18.470188296916604.917701888268311-.967816578140628,1.777583512828642-2.60864681007115,3.507592474577905-.704295384408397,1.539089689684261,1.694203924056637-.20074585922157,2.224654437817662-.857054432754012,3.15075189856725-1.712207559966373,2.416057244810872-3.465211269094652,4.803388853724755-5.17056422251153,7.224193131587526-.309886131619351.439861299701079-1.168437985371384.888973227913084-.314416496927151,1.534417574366671.317895238329584.240212044263899,1.080684542639574.458605994313984,1.19418753015816.320729027938796,2.685698858529577-3.262428894062396,2.933165776965325,2.074666451220764,4.859695051152812,1.352174106785242.273909925363114,1.876416961938958-.989105627437311,3.02629442946818-2.129107854781978,4.12240261878469-2.143590544888866,2.061003516349956-4.170275565487827,4.216552107634925-6.640639188206478,5.974810548179448-5.387987465210244,3.834811533108223-5.039598943820238,10.227452278879355.538740068955121,13.876429639914932,5.108327900442418,3.341485252183702,11.728685226130438,2.859783116293329,16.74933588847307,6.629140366754655.776464225328709.582911314913872,1.979099038823733-.902271006396404,1.315196673821447-2.529468733153408-.964655371608387-2.364296326735712-4.766645386574965-6.024654395216203,2.223525392486408-5.34357687118063.819878003561826.079908389694538,2.781880533440017-2.320994864994645,2.602372904854747-2.625839590031319-2.075242611420435-3.524337313745491,2.736790253326944-6.309993683164066.764446755033532-10.004311295779189-.984777204401325-1.844526637338276-.425961025432116-3.93900282263894,2.578787571585963-5.612484121644229,4.18252927013873-2.329423891629631,8.849057012615049-4.616763509478915,11.61822661361748-9.023349087648967,1.319925171169416-2.100349117215956,4.515490163999857-1.653884572820971,5.675553260433844-3.7313505563543,7.600497478298166-13.611113093938911,21.549922817655897-22.175764898178386,28.672060966305253-36.128633942096712.363023620757303-.711202926091573,1.545147957840527-1.50456603960447.471417087771442-2.568342673685038.267630663777709-.237260363457608.535253707091215-.474535941764771.80287675040563-.711811520071933,5.373104700790464-4.522903102770215,9.071757426002478-10.134565622542141,12.550110183698962-16.25902943062647,1.501581770347002-2.643838757017875,6.365631916156417-4.188145983573122,9.34213907695721-6.809771060286948,4.472480270310371-3.939215830532703,7.993042773071465-8.869998619311446,12.972558175645645-12.277318525379087,1.491766613884465-1.020764254479218,1.812527146335924-2.171159026893292.167741633572405-3.514736743696631-2.174758238933464-1.77650104512395-3.951453967812085-4.366007574495598-6.40784928168523-5.389084486103457-3.105994069651388-1.293612150970148-4.996509035267081-3.285266383194539-5.800071627350917-6.1790090436225-1.305385327590557-4.700871197641391-5.44488184264992-6.275319041102193-8.824481019142695-8.689291851529561-17.058376148690513-12.184447083891428-31.817391866436083-26.935304555576295-46.641242484165559-41.606512290012688-13.174706200076798-13.039027144459396-26.922810335248869-25.351012704475579-42.970046287471632-34.848852089342472-7.205727008300528-4.264836432592347-15.110343832773651-6.934768656541564-22.876641631670282-9.904463845785358-5.449775132515242-2.083901864880318-8.650821143424764-6.315425384444097-12.053099294356798-10.983698766982343,2.803092568734428-.776748497833978,4.625567277079426,3.451161494967891,6.025186298702465.854230119030035,1.579552443585271-2.930790819016693-3.252040244802629-3.954826266144664-3.690066368422777-7.195345776894101,3.277338277151102,1.650339512882056,4.783933359654839-.33354753866297,6.317404862923468-2.671240701005445,1.799006539696165-2.742491841323499-.243995797497519-4.197541153154816-1.696881856131768-5.826625521252936-1.754323001800003-1.967089857669635-3.331874121266083-3.950113466502444-3.370455573341133-7.283074599239626,1.166319496632241.578544653100835,1.865095005858166.898687909333603,2.538493420432133,1.265285904870325,1.064416759054438.579472758923657,1.588832262513279,2.507057259808789,3.21094403990719,1.618319862061981,1.729454573059229-.947546594865344,1.073029787464293-2.317000966993874.528050464353328-3.854206662535944-.516170162394701-1.455939380530253-1.018434884761518-3.915237227685793,2.108717400664318-2.014598225305235,1.361144256032276.827284620523642,2.391682341298292.403322838572421,2.482558268780849-1.052118255633104.123550568104292-1.978748236118918,1.592861582374098-3.675972307803022,1.06342800397033-5.74224016208791,2.0106649020654-1.919874375887957,2.341518737881415,3.211189084582657,4.585766074629646,1.039558397353176,1.205359129050521-1.16635514956215,1.785017274576603-7.216832948131923.52526327997839-8.29413177972674-.831217252642091-.710833965988058-1.432959500207289-.102681215714256-2.204967659743488.071422307373723-4.617362419724486,1.041296693911136-3.112616252078624,4.373154750057438-2.830784855330421,7.262108536597225-5.890292195008442-4.033057218675822-2.162455001271155-9.806217758705316-3.028370127484777-15.285461639366986,4.292450640004063,6.008960277933511,6.64127740199001,5.535409497675573,12.4607964511506,2.60067042521041,4.50965288927182-2.27418638043855,5.841191646192783-5.687171916097213,7.578767727792183-9.462036942084524,1.179723891209505-2.562950911385087,2.610869721201198-4.852580364087771,5.661798324554184-5.684252566843497,1.360652736160773-.370911405378138,2.889031864970093-1.287159152917411,2.566244289336282-2.992698139867571-.271299916755197-1.433470851496168-1.644808374153399-2.048337154120418-3.351445375600633-1.905448796684141,1.589579067896921-3.137630992708182,5.045329532063988-2.966638906346816,7.401439551649673-4.520854803656221,2.652820370522022-1.749936868784971,4.596129904435656,2.096436048102987,6.823320739671544,2.629929531768539,6.889073905455007,1.650186413457959,9.340035829141925,9.207676038689897,15.875398319738451,10.992937033426642,4.797881664784654,9.908606088567467,15.354478703722634,13.806091390571964,22.719801070551512,21.098370973773854,5.9125649035077,5.853924765007832,11.348035474241442,12.877863850890208,19.162165014849961,16.767403197731255,3.188599889564102,1.587152242813318,4.386407139690164,5.274828573610648,8.093152796705908,6.589072060534818,2.705721625302431.959319084682647-1.006106880594416,3.281470278239794-.58596788896557,5.428255116197761.212984322947705,1.088310578936216-2.264778769433178.026724883187853-3.042355582374512-.651857405526243-2.448028045396313-2.136377880884538-5.436019244074487-3.656485889276155-7.061822183278309-6.763114724224579-2.918644984544699-5.577041129681675-9.000536577949788-7.33650534705157-13.680697328895803-10.790394103796643-8.89124389628887-6.561601649720615-17.772223028794542-13.137820966121581-26.72093283725826-19.62065914357845-3.155725211786375-2.286141448450508-7.110204503446766-3.364786794227257-9.925310255966906-6.165072241459711-1.307884839484359-1.300989451134228-1.884254755185793-.625412095201682-3.113976504740094.152291134440929-1.517234201537576.959530190719306-.242704129004778,1.453411813651655-.303542096095953,2.07314686812515-.346098572231313,3.525596342544304-3.660321795861819,3.617102251286269-5.838783579855772,2.884248594324163-2.723507786158734-.91621541598397-4.038388210761696.248397633309651-5.575690901850976,1.779985245664648-.685384450458514.682831035443087-1.559264865718433,1.373353177319586-.833602457589222,2.509864399544313.570925094822087.89416909902684,1.794859102658847,1.81090942731862,2.443699622361237,1.253224332913305,2.625847741408506-2.256932741078344,2.919357497843521.630389252850364,4.441670738031462,1.356673898531881,4.648181477582511,2.217594747635303,8.89130104976357,5.939854431398999,14.050491731110014,6.386402657466533,6.098702334984409.527860185629834,9.432754003579248,3.768649759957043,13.431645354135981,7.979131142630649,6.017872082971735,6.336281139429047,12.084050281480813,12.723665154688206,20.309570522088507,17.033491897320346,12.759185209081807,6.685267946642853,24.592293640956086,15.094522885283368,35.974209694103592,24.015529287618847-.238063266981044.293144505754753-.476126533963907.586296618934284-.714189800944951.879448732111996-5.395546964597088-2.25062618595075-9.683703473647256-6.7582003278294-15.617765703537771-8.354565162027939-.498218256466316,1.957283887151789.624519811745813,2.463071129837772,1.345232729096097,2.744355660386645,7.170169927515417,2.798490094992303,11.350664534009411,9.644297526372611,17.692444400689055,13.2589730091604,8.291856371820359,4.726181099822497,14.863713260162513,11.671790336647973,23.092197860912165,16.344415166149702,1.207797677239796.68585498678658,2.233283395476064,1.374950736520987,2.343688664746878,2.882308701009606-.293921261442847.364715157911633-.587842522885694.729437923244404-.881763784329451,1.094153081154218-1.21133357211329-.419732053782354-1.706739877698055-2.092391750913521-3.803327406238168-1.816554136492414,1.991516583432713,2.149736518766076,2.294841496330264,5.976712404370119,6.753864028822136,3.874735298255473.74904579912527-.353106227723401,2.633830176497213,1.141174573604076,3.69853079780296,2.106480701571854,4.236565973921643,3.841034406563267,9.796775905000686,6.009165678402496,13.390144312138546,10.660269103253086.896928505881078,1.160969092832602,1.926849333635801,2.411355856311275,3.615970700668186.873667089294031,1.760707997313148-1.602869182370341.369333364196791-2.571172635694893-.64363955364206-3.633032198737055-1.933738232272844-2.027089616762169-3.876468610991651-4.045598058393807-6.002638777252287-6.262873294192104,1.784544805864243-.987489378574537,2.850205605519477-.000456445484815,3.518352568464252.87030460754977,2.175916549323119,2.835819728294155,5.174477330309855,4.559007940690208,8.104271052357035,6.386448302015197,1.364535362108654.851133897151158,2.631086809783483,2.696679929409584,4.483621387351377.34899821835279.308583032430761-.391052062432209,2.677586875568522-1.147230083712202,3.486880055896108.350641422101035.574674362663245,1.063594055887734-.213052907114616,2.191668644050878-1.156085214700397,3.010775282957184-.623780626825464.541785576653638-1.197311920025641,1.145252153275578-1.761134743245748,1.751000957323413-1.428425324667842,1.534615367410879-4.538397276054638,3.033643201788436-3.642017443515215,4.79054752072625,1.132720874860752,2.220105197809971,3.078773775489026,4.583123477184927,6.306542845343756,5.245273728414759,1.70174085391136.349104722299671,2.395233477098373.248473707555604,2.969831635131413-1.204635710962975.229635034802413-.580705161733931.479205201052537-1.708262445014043.613767338323669-1.692393356961475,8.066763133020686.951993134636723,7.032925387235991-8.144493734667776,12.095945824367845-10.967761212108599,3.943269590450655-2.198880482723325,6.45468464784426-6.953262306135002,9.609876427215568-10.565465375875647,1.526180625206507-1.747242889490735,2.777384460216126-3.928169849777987,4.652871872615833-5.145190448252833,11.311632522053515-7.340267218594818,18.875094549725873-18.244141277556992,26.428116542962925-28.832984269723966,2.651159109567743-3.716744300811115,7.452294712092225-7.279430642780426,7.847827228399183-10.675202478061692.622073643093245-5.341241391775839,5.310517837419866-6.031653225994887,7.037558628795523-9.677115956790658,1.710001435901177-3.60945678940152,5.152682805866789-6.827800656972613,6.69588754562028-10.175082766822015,2.948296206433952-6.394873524939612,7.687675576064976-11.34812864646301,11.036838622970208-17.285449805418466.943962004082096-1.673431850744237,1.25390147894359-3.381028646092091,3.499621470185048-4.250473614643852,1.424203588115233-.551393754129094,3.03145069969105-2.602751055879708,3.168984817567434-4.10780777438049.347005407338656-3.796888520671928,2.518837388443899-6.301344041210541,5.03538863796166-8.534693765530392,5.896165666935303-5.232666323726335,9.495523758063428-11.916941501437577,12.171312204342939-19.086694950505262.808653061427322-2.166878899537551,1.631724039025357-2.883416532241426,3.743506770968452-2.89720118590958,6.562285586698636-.042837408830565,12.253430314618527,1.843786815282328,16.850215578879215,6.762386313304887,2.315096687227197,2.477211430612442,4.394721064923942,5.586862315048165,8.537235283370137,5.145547997216454.271715231993767.234633900058725.543460945839797.469263996404152.815176177833564.703892190895203-.457075376233661,1.981302428980598.43534181549694,3.309777505776765,2.062798395190839,4.302422816482249.686664688258134.418821064668919,1.321052999706808.925481259344451,2.018325372589061,1.324032340736267,2.56376763883236,1.465326942684442,3.046081988824881,6.04599322166996,6.048453001357302,5.727097583098839,2.61793389048762-.27806658987538,5.060840984687275-2.8474476770416,7.43437138290119-4.602252346746354,2.846456337678319-2.104478047003795,7.728521258236469-2.077306227613008,8.033095927082286-7.299074915369602.216116333277569,4.70806211589661.890740689850645,9.260706445773394,1.91032816965344,13.809044973237178.364075244664491,1.623956963809178.70434416263015,2.447278116032976,1.876158013151326,3.29102900745238,7.497956526937742,5.398974138292033,11.305932415661118,18.115701321597953,7.847735782841482,26.590642569339252-.804781866177109,1.972186832259467-1.705947349537382,3.745447114435592.801245971303615,4.965807372378549,1.159560145869364.564402450472699.903116321910602,1.244567083536822.415955357390885,1.897740573545889-2.378255085330238,3.188712948125612-2.086208457807516,7.410902157505916-4.227558586547275,10.687404787377091-1.487758250298612,2.276468607864444-.922655189277975,5.113688102315791-1.080276847863388,7.458159480122049-.523342923279415,7.783513822319946-5.050233300064065,12.428668241005653-10.660479191803461,16.707692520780256-4.042990970468963,3.083631589895958-8.494042498566159,5.783483815430372-10.988555368822745,10.489710640102203-.773995195287171,1.460214753244145-2.274891123955967,1.926298846099598-3.581922471574217,2.465992380946773-13.807608521223301,5.70140730967978-24.233834677590494,15.000555974627787-32.876018978657157,27.287809796744114-7.807469255864817,11.100480344493917-15.047122565850259,22.706306701034919-24.195275134346048,32.86699622020933-1.277159132299857,1.418526065552214-2.055238895804905,3.314144167590712-2.929915649458053,5.056198793394287-.856844870018904,1.706482307619808-1.728199101764403,3.224239621760717-4.641105877602058,2.603443331534436,1.925081386199054-2.131372195392032,1.798825553697498-4.873940110963304,2.921136875976117-7.074646375629527,1.435695246456817-2.815264466589724-1.360679407783209-2.208648416117285-2.114465134952297-3.216054032716784-2.111599840828603,4.039101317648601-7.490701846073534-.229896376287797-9.87483992891066,4.03722989115704-1.189920070827611,2.129698561944679-2.845999109892546,3.296099356057312.420314262280044,4.724225991660205,1.337025490346605.584584948361226,2.266721987522033,1.925773933791788,1.220859150977958,3.1769975139905-1.216378318679745,1.45514820835524-1.966323332450884.287454152032296-2.92765999238145-.905694347538883-2.124188845857134-2.636398695600292-4.441205889783305-2.827999295639529-6.72505867833479.145347457490061-3.715554912349035,4.837272323613433-7.432938735840253,9.688937894872652-11.452062415906767,14.270068226769581-1.53890679856886,1.754150431173912-.549435388903476,2.320340626463803.446589619020415,3.413877506211065,2.598212132006665,2.852540847919954,5.668344302349396,5.046552578796764,8.95154462073333,7.041721441260961.96283027069785.585117468095632,2.799026575396965,1.603553850598473,1.892801104543651,2.987770430478122-.843249963863855,1.288013086346837-2.231302075072563.217922289713897-3.45036279676151-.465620039945861-2.994171394245313-1.678882570584392-4.866732548817708-4.466958101076671-7.254680863201429-6.740923866194862-.684409031181531-.651712864457295-1.449381598168657-1.833313293242099-2.477595442192069-1.169154681874716-1.226162993290927.791993777054813-.494781427611088,2.044160677925902-.001493610766374,3.047625648498069,2.63658878413662,5.363736546798464,7.256814592866249,8.914867210554803,11.770079581644495,12.492623860975073,4.786900577470988,3.794629115518546,9.571636943423073,7.461666502938897,13.459993476836644,12.323769460972471,7.20386761530699,9.00786037083526,16.718076748871681,15.649629062692838,25.824713034444358,22.447806407642929,4.584440114052995,3.42230653284787,3.234795136826506,7.445934348532319,4.383747598072659,11.224724805697406.529744112275694,1.742343707945111-.158109368224359,4.256688880674119,2.794027551608451,2.001543884414787,1.782883544909964-1.361972469876491,2.450679966553253.486327450144017,3.034041657140733,1.098664284036204,10.690534298236344,11.221347109101771,23.530161115711962,20.119112828791913,34.038840682730552,31.552281072948972,3.36864095056626,3.664952953036845,6.070979090256515,3.114905713089684,7.162473259792023-.587354050974682l-.079679562085403.120440748822148Zm-112.922628289673412-174.569934300741807l.097465722940797.086252981944199c-.109140272396871-.311676192472078-.131727325000611-.70762743645173-.341015723348391-.921776443483395-1.803306385995711-1.845409098612436-3.009259911166737-.031890324600681-3.981234737573686.942849010072678-2.426264002808239,2.433128305976425-5.494506298304259,4.299442607833043-7.01148140409714,7.567196699228589-.033027087038136.071175066066644.219880842046223.37846938187613.257800266389495.363908770885246,3.565721367041988-1.3696711837365,5.90692576082165,1.482641441440137,8.805216488448423,2.420956426358316.27226390533724.088139623283496.968317004123492-1.205594246483088,1.502602912401017-1.827790302866561.733515295345569-.854192081906149,1.194416144051502-2.02258602130496,2.495960758244109-2.238134794491998.900403437050954,2.14079018724442-.298173479847719,3.86315679776817-1.264493922641122,5.532849599241672-.624954178141707,1.079873944874635-.587644390845526,1.799642831249002.317758069993033,2.549887061213667,1.302123769387435,1.078976268754559,2.104421364597329.144662789261929,2.889603399703446-.743184539785943,7.270409499022207-8.220963568372099,12.578488788252798-18.015545770904282,20.617010485055289-25.622438012536804.841786834950653-.796581054188209.895343449558823-1.766778756278654.261473329599539-2.684888421028518-.319846076880822-.463238915994225-1.187725377456445-1.362010507000377-1.406524113742307-.756527962817927-1.180470696593147,3.266453221760457-5.636399321069803,1.928261561686668-6.884052020278432,5.108857387589524-.305184305892908.777958078371739-.810481972570415,1.749928310433461-2.306805623383298,2.008223203356465-4.257156465195294.734892446798767-8.456778434047919,1.828862949754694-11.13242971199179,5.843011914188537-.651869653781432.977949667922076-1.310079532855525,2.374946721400192-2.916854175718981,2.370747422932254Zm79.566123872165008-88.924367186444215c-.286224593720362-.335658599033195-.572449187440725-.67131339435582-.858673781161087-1.006975797099585.334324956754244-2.652925825896091,2.526335924126215-2.445973442687318,4.338908793240989-2.782297691386702,4.140746271008538-.768338489760936,5.608234089483631-3.177153466200252,4.139313623947601-6.847929902890428-.331093880404296-.827400633751495.310610075613113-1.279593568991913.81292052075878-1.557158068835633,3.277744066810556-1.811189000179183,3.291704755193678-1.787836108017473.447412629034261-4.511166748222422-1.18537827482487-1.134995442840591-2.525634841522333-2.14812754842842-3.527756219919866-3.42589343362215-1.738745822683086-2.216919588689052-3.237629949097027-1.557331137748406-4.996006084704277-.057797409624072-6.746578866105665,5.753464917321253-11.781693167396043,12.934980395999446-16.967723119751099,20.001053203919582-.668253649428152.910506043703208-1.031841184455516,2.179074552357633-.394221796655074,2.684108659992489,1.470962749644968,1.165058083639451,1.154957386162096,2.161391093499333.001158310390565,2.926336671816898-5.959476474301482,3.950900834965068-8.338676497054621,10.939069809619468-14.090236256364733,15.483053086405562-6.110178752400316,4.827306597175266-9.879869434551438,12.586887461193328-14.766079887031992,18.994225751603153-1.045771390986374,1.371367639458185-.309299355962139,2.128017321072548.527366527790946,2.926302438405401.538065657971856.513387060022069,1.079088055622378,1.529784652688249,2.028414865721061.879692169706686.896989469586515-.614246297507634,2.266691505669769-1.29501191712734,1.535248976286312-2.678855733192904-.597109006005667-1.129679754787503-.421594500079664-2.262950214064404.418942578923634-2.551355294192035,4.763063768919892-1.634272631785279,8.794745972160854-4.501609920866031,12.920647581066078-7.228369607782952.274062334625341-.181125176142814.675874112519523-.572222883125505.814566540786473-.49603452413794,3.725126213991643,2.045819096523701,5.145214752037646-1.20175249697968,7.090109342275355-3.096860901558102,2.845328509140927-2.772442272605986,5.794539171146425-5.472507506034162,8.356752235507884-8.493149618905591,4.479856878583632-5.28138997746828,8.756003537802826-10.73916950916464,12.99673028457255-16.216245273770255,1.491964745925543-1.926911243792347,1.274507211143828-2.244038156108218-.827795664714358-2.944681976628999Zm-163.860394551364152,175.836715064579039c.579261881444836-1.024141951074853.845810439462184-1.810795315948781,1.366653850847797-2.354878334881505,1.353531413402379-1.413855106748088,1.755983310196825-3.400381934685356.328914427958807-4.297966767429898-1.270453124779124-.799114326631752-3.204252320754676-2.440385789197535-4.989726823116143-1.014084935537539-5.095544573607185,4.070519981913094-11.155443510529039,7.382366707224719-15.404781380590975,11.902926723170822-6.360297591992094,6.766180516406166-13.021451066842019,13.493989182312362-18.340861984689582,21.324783149522773-1.795205833729597,2.642728073000399-3.356128150171571,6.288692893833286-6.662494676353163,7.336387431967523-1.478842308481944.468571720752152-1.847002121363403.686524440165158-1.750519438160154,1.927143270248052.086621803961862,1.113894348409303-.670684577155043,2.359214566995433.303302051508581,3.327563664868649,1.22735940599523,1.220200502026273,2.315828251684252-.154522011751396,3.00261486735053-.653036556363077,4.77694825267281-3.467220768638072,10.131138964071397-6.323823981381793,13.213692489252935-11.715921007689758.445842813638592-.779882756836741.553657125457903-1.843583316669537,1.907600043868115-1.943849175024297,8.677558490738193-.642538310194141,13.379079399730472-6.772601182901781,18.11891599714636-12.987821568391155,1.43790518075366-1.885500227104785,2.893687967920414-5.456212402195888,3.755669030063473-5.560023320489563,3.014822849224402-.363117598710232,3.457282177248999-2.439031667590825,4.237068924486266-4.791992931432105,2.877776440984235,5.320435085055578,4.201770939444032.931879103567553,6.111093207970953-.014819263435129-1.596593704172847-2.568601326125645-3.058183284215374.14711238003656-5.197140587543799-.484410379103792Zm92.802167179665958-17.413258345120994c5.780944264991376-3.094411310783471,9.781900761046927-7.840957486690968,12.526456266264177-13.738978689329088-5.26546565962326,3.541590953105697-9.480618132257405,8.076072556366853-12.526456266264177,13.738978689329088Zm39.606960654499744,60.425942242873134c-.288571696353756-2.766576948115471-6.321448471152507-10.071773938561819-8.572441822852852-10.675057936987287-.762046309160723-.204244139993534-1.27837840639495-.07441582901447-1.64227075994495.582713521871483-.545228893277454.984552912614163.26421669631236,1.526962298099534.818071953809522,2.030163016366714,3.016057364245171,2.740163969345303,5.600339289719159,6.000934444808081,9.39664062898828,8.06218139874909ZM102.478737423581151,73.436261371683031c2.12058436681491,1.938097961905441,4.208568392522466,3.913700527882611,6.379181099534435,5.794248321468331.775389740032551.671766036128247,1.759107700063396.914876509226815,2.67187152824954.08384903572005.559601086668408-.509484451118624.716933167656862-1.096450523431486.121386356586299-1.658966332561249-2.491030318624325-2.352862367319176-4.87995405228321-4.917089424208825-9.172438984370274-4.219131024627131Zm190.192051272514618,82.627321340223716c-2.118824039840547,1.619392508953752-3.89356893016884,3.611244534222351-4.943150552700899,5.961132398459085-.412297535107427.923084920543261,1.332575139901564,1.971494556606558,2.359813564649812,1.518639775413249,2.376334728630354-1.047603249040549,4.273220401391882-2.880855682882611,4.917119050779547-5.437452492735247.168473198028551-.6690273632139-1.16748542748519-1.764709536744704-2.33378206272846-2.042319681137087Zm-151.450226551877677-49.361475447200064c-.533843921419248.723230264637095-2.239257838540652.762826910520744-1.090396822851289,2.119907806276387,2.043960610428257,2.414398826213073,4.808542692650008,3.893168088450693,7.542353344908406,5.337513753644089.529225920785393.279603289680381,1.777488257042023-.424296508641419,1.097011384815232-1.375315892906656-1.9295469775725-2.696748396232579-4.72112074006418-4.3982250183617-7.548967906872349-6.08210566701382Zm-97.910251225291177,201.260538431444729c-1.222821420224136-.131517159274154-1.780414514867516.441078487663617-1.707098039463744,1.36023797703092.182799668640655,2.291691064812767,1.940482342108226,3.617087036438534,3.54611772573935,4.843525626765768.562199664582295.429484772328578,1.549171562353877-.592101084024762,1.465609374323321-1.455026489558804-.215742930587112-2.227879985912296-1.350014569688028-3.900904839432769-3.304629060598927-4.748737114237883Zm123.214440907800963-180.349386181047521c1.403597855914995,3.586915989833869,3.777021567644624,6.076187090549865,8.374827973960237,7.478418052263805-1.994381877554588-4.279572014358564-4.811956660115356-6.277053533949584-8.374827973960237-7.478418052263805Zm207.470552118066735,204.251580054569786c-.521574975840849-1.200269049148119-1.442370772124377-2.410823336575049-2.61912268272954-2.531385804193633-1.54387534050602-.158204005336302-2.076332337641361,1.272174427993377-2.0988279446874,2.687277152403112-.019843685890919,1.248834848825936.423728229744484,2.361557653821365,1.858752875449682,2.256818629708505,1.372963594286375-.100174569257433,2.35012033559633-1.004575654589644,2.859197751967258-2.412709977917984Z" style="fill: #1c9149; stroke-width: 0px;"/>
      <path d="m706.402433994036983,136.998889384739414c5.019019883240617-10.253941331899114,12.282601447333036-18.378579687938327,16.455688963701505-28.369334552793589,1.180623105854465-2.826546277510715,7.031614667583199-4.366844391219274,10.540624548297274-2.772921540366951,6.345651061930766,2.882453242080373,8.936913331598589,10.464781109159958,5.145702461675683,16.420854570151278-8.160662479234816,12.820503868188098-15.876960514672646,25.866674384498765-22.726293705105491,39.446597036916501-4.625133386962261,9.170263674641319-4.661345827573314,8.728333155402652,3.693059305302995,14.657377436218667,12.306560183292277,8.73385614578001,24.730597425605083,17.311379712717098,36.604803014932259,26.667751426721225,3.438779692862227,2.709597336652223,6.965651939062809,5.193588884583733,9.94671613679202,8.44265914076459,3.58289789085029,3.905028063654754,4.449192135102749,8.978876082495844,6.295721787753791,13.638454178531902.428940626499752,1.082414824746593.121073917598551,1.565821023781609-.87367085252481,2.334566510768127-8.154322253943064,6.301716805024626-9.855087688578351,4.942315644715563-16.130630490066324-.948493719246471-7.37173117628754-6.919789637187932-12.557242937154115-16.4156054470659-22.395260788406631-20.668064599572972-.290248198232803-.125461649164208-.537395057219328-.648076515421053-.747963693365818-.615927538379765-5.657309871793586.863883941052336-10.560315824927784-1.579818685342616-15.656637685769056-3.339918122681411-1.186475621509999-.409751112496451-1.691255096697205,1.025343924186018-1.796600378474977,2.261291795466605-.657188737019169,7.708177494905613-2.945217539345322,15.288763261714848-.166857659854031,23.167392715820824,1.714421304495772,4.861509578902769-2.315767287979725,11.845429806828179-6.536284566629547,12.956022532889619-4.481198080088689,1.17921169741021-12.087822410711851-3.017850187985459-12.865353500874335-8.398627366248547-1.132095996886164-7.835799652701098-4.280200745582988-15.533052885648431-2.574009541226587-23.677926991556888.152775044060945-.729415100968254-.243184218179522-1.205609461332642-.374439074468683-1.801575117136963-3.770544174018141-17.110969714802195-5.97785703127829-34.474627650481125-8.539856722672994-51.789491563737101-2.558707651339319-17.29239158051314-3.722992484325914-34.733660463603883-6.102588771161209-52.021053966049294-1.131425396135455-8.219191038400822-.232210751327329-16.418853817440322-1.552928450658328-24.646991187359163-1.373207449105394-8.554571966429648-2.514630892817877-17.198660500027472-3.582836927145763-25.826731600791391-.779908674646322-6.298867824451008,2.007900579079433-9.087087896012235,7.892361214706398-6.871471078813556,9.297330753977803,3.500643989327727,14.631532990687447,10.504377755043606,16.435388050024812,20.264361389761689,2.586141318469345,13.992868883313349,4.075545588796558,28.15367927565967,6.77075097503257,42.14488974037522,1.203240640311378,6.246228248815896.234405444697586,12.913983903657936.205935394586959,19.390230247556246-.014326470611195,3.256997192782364.547819850728956,6.332344297114105,2.635460955598319,9.95608022279157Z" style="fill: #fff; stroke-width: 0px;"/>
      <path d="m800.893189108317529,64.030464219004898c.908603055338062,17.656619863237211.545198411426099,35.331839880014741.904884269349168,52.994385927140684.115709111582873,5.681650827576959,1.255974244904792,11.339429556250252,1.842810866662148,17.016865870506081.137595081582731,1.331192829291467.736441553172881,2.197967591753695,1.900909277273058,2.604280148258113,8.30051321789233,2.896207466050328,14.110110424107006,9.204999176103229,20.448262950355456,14.793565554296947,1.346383419024278,1.18718427856038,2.587055774040891,2.416802772439041,4.20253298575426,3.374181963807132,9.669879953600685,5.730657857886399,17.606074072009505,13.610367566312561,24.12650807540831,22.51076545496835,8.104880689405036,11.063203963163687,11.458555050459836,23.727770838595461,7.997279750550661,37.513124389268341-1.147946560116907,4.571803629140049-2.036126774369222,9.247068235032202-4.218200657869602,13.49137222819445-.892691528402793,1.736409916631601-1.625902005223907,4.182166547712768-3.10725906652533,4.88399712649516-7.684474981567291,3.640685268048401-15.225075619965537,7.977571620554954-24.397552706650458,6.365680032417004-7.949240351221306-1.396951408927634-15.848246609743001-2.637615883559192-22.516456633415146-7.770832245238125-1.615050465780769-1.243235784200806-1.973699940723236.733066664855869-2.63119349626686,1.755611056727503-4.244476014610882,6.602149223701417-10.296099128615424,8.148951685579959-16.73996271886972,4.324714472892083-5.210445916101889-3.092220372453085-5.946033977406842-5.148735508191749-4.021836564927071-10.931489010847145,1.244086322482872-3.738790617768245,2.034663645456931-7.548923664948234,2.017045134789441-11.533860118299344-.055903717239744-12.657263747658362-.446620100872678-25.334185080901079.130462328127578-37.965324931930809.353589487450336-7.740722058035317.560500301313368-15.355328228375583.017435619554817-23.125962680573139-1.047478374719503-14.988802503372426-2.374353408228671-29.973314419177768-2.421417388281952-45.039415965551598-.045052177798425-14.429641568563966-1.04692970137603-28.840873169203405,1.12581673529985-43.237635447947468.683768912283085-4.530594209207266.099492766124058-9.226665121823316-.724553630749142-13.860994175074666-1.109173643908434-6.237844866729574.60201658423648-9.293557207751292,4.492903111397027-9.453294109178387,7.225418284929219-.29663251000602,11.623705726579828,3.267046600893082,11.577373310983603,9.342031718329963-.030359924957338,3.982521095986158-.005791551950097,7.965472011472229-.005791551950097,11.94823274133887Zm3.80620794128663,141.155203497713956c-.387546270985695,5.948595362449851,4.810219194530873,12.30181443310903,10.196667326196803,13.183028087765706,10.681145887706407,1.747410252837653,21.272431274637711-8.087164181666594,21.71862462957688-18.92136944466256.371025107003334-9.006247596786125-4.121085476232111-15.072179878756288-9.517836473995885-21.163292736688163-4.912516291073189-5.544519388826302-12.001863587039225-7.895791804370674-17.626253058275324-12.37501307416278-1.074363368506056-.855591848061522-1.7526455473635-2.912639503536411-3.544368829459927-2.050246617736775-1.806354571232077.869467790826093-1.383815133728604,2.86687323616934-1.240611391311177,4.453447314701407,1.129657448697799,12.517013264759953-2.57986205688303,25.027377640277336.013777797268631,36.873446470783165Z" style="fill: #fff; stroke-width: 0px;"/>
      <path d="m450.02262192555736,8.006031500130121c7.486983060085549-.074056378196474,10.612561719882251,5.244014699615036,8.478740608678891,12.022388016055629-1.469712993698522,4.668699398324861-1.045558018020529,9.890759070079184-1.14627005823877,14.77269838817756-.259095745113882,12.558869315795164-3.241196325822784,24.997008800630283-2.108704064855374,37.529145625812816.972310126784578,10.759545996388624-.759577279117366,21.411408895281056-.183134969016464,32.115131608770753.376542322282148,6.991968883321533.451893461331565,14.008357600127056,1.096432229619495,20.973746141331503.266319944124916,2.878223513915145-2.912815330280864,7.054395410916186-.011247803523474,8.076529001853487,3.191084160533137,1.124118727286259,4.647872848827319-3.780950965798183,6.520769303775523-6.154208838903287,5.486215234459451-6.952029903324728,10.436163240238784-14.323769038157479,15.675871734611064-21.472899709624471,1.711129264440387-2.334619762741568,1.79696616070396-4.544036528761353.597779606757285-7.146643043570293-1.15593280543726-2.508753715528655-2.472596418404464-5.451199109278605.367946439915613-7.608839742371856,2.395507813769655-1.819635143521737,7.811675751491748.110018576899165,9.804426849944321,3.103030523037887,2.868159416563685,4.307734700822039,7.252394724273472,7.580167358446488,8.494072980419332,13.013055396324489.947528380808762,4.145947598422936.817096534532538,8.910949386799984-5.745006161051606,9.430551712852321-2.263460429318911.179223319952143-3.593810393997046,1.792971119732101-4.81780917576998,3.124042230227133-7.026006006747593,7.640851785767154-13.338248958484655,15.834017824059629-18.532600456536784,24.865826368044509-1.039583574955941,1.807676271795572-1.009376059260831,2.758497863020239.352492140764298,4.474717674334897,10.447197670794594,13.165728803858656,21.062868539619558,26.222549714835623,30.913993587389996,39.827135638330219,6.955440518519936,9.605530089787862,14.650035475073309,18.623523550406389,21.488456162358489,28.296181556288502,1.420881066207585,2.009775118007383,2.864318703164827,3.288370212498194,5.623962725304409,3.261135631852085,2.728613496428807-.02693028365502,5.017312899507488,1.440557167661609,5.877815591810759,4.326418536038545.85544270481023,2.868912026006001-.20654503163496,5.054327366902726-2.395629741179619,6.991968883321533-3.785907027609937,3.35104017768208-7.633448360705188,6.300225749770107-13.172915391250172,4.910197097373384-5.07663058421258-1.273908920838949-7.25041340386997-4.014164179281579-5.958470573173145-8.929945126430539.597627197496877-2.273935335420902.067547784844464-3.578730400789937-.989258036698629-5.280952550545408-2.958568590681352-4.765245225968101-6.256613571167691-9.227806235536264-9.969821380884241-13.462007568614354-3.660870469203473-4.174543908100532-7.621072728645231-8.186228066910189-9.762422857384081-13.555335455588647-.886351303110132-2.222280921290803-2.351187200429194-4.381298498265096-4.038997847808787-6.090838990639895-9.774493670921402-9.900393873538633-16.439015390456916-22.411579850930138-26.869173705779758-31.734904911771082-.722846647016013-.646129014681719-1.057384976737922-2.302219740682631-2.615769678968718-1.480207065518698-1.070492173255843.564699140037192-1.080916966764562,1.665447858456901-.900342473345518,2.626904629498313,1.316541685556331,7.009344241476356-.380504963090971,13.990723589531626-.160883216790353,21.011281175105978.242330726312503,7.747705673966266-.085440632183236,15.528473215945269-.522458949560132,23.310640524079645-.455886583991742,8.118141615295826-.170881264366471,16.305526010768517-1.136180565104951,24.43650895906103-.20748996905786,1.747577616180934,1.02348915690618,3.076138276504935,1.973029339971617,4.394581061897043,2.800306813196585,3.888352588579437,2.046825904551042,6.57973775035498-2.334422181627815,8.103794012196886-5.52523200548876,1.922000651109556-19.269438273790001-3.9863514343524-21.76474367220726-9.356219565508582-2.316346443174552-4.984719430336554-1.376225152490406-7.158921427135283,4.07094282908929-7.209662950293932,4.94177886934267-.046040134655414,5.761618770589848-2.457639428555922,5.817065260043819-6.507117273580661.229314975353191-16.748962800109439,1.324284076058575-33.474007856768367,1.089787185803289-50.241974003929499-.240776151841601-17.216652059589251.500816834380203-34.463003505446977-.225474261954332-51.652649207131617-.833739625924864-19.731948160411775.496732266163235-39.412104973049281.260985619961502-59.120021278638887-.112813335608735-9.426728981910856,1.954557337437109-18.761430946480687,2.125591011064898-28.234789638467191.045387478174234-2.512740006102831-.168503679880814-4.586790255918459-1.704118438395199-6.226498392695248-2.397367206764102-2.559923156330115-3.713177327864287-5.439268765397173-1.816322136955932-8.4392091736363,1.893959414933306-2.995421597931454,4.542923831129883-5.626778472771548,8.252016590777203-5.092685904405698Z" style="fill: #fff; stroke-width: 0px;"/>
      <path d="m594.805751041374606,225.903104502990573c2.360453683550077-1.584063628359218,3.431646939409802-3.789090910289815,2.400384910149114-7.810345209449224-1.079667210817206-4.210481382673606.117172240496984-8.946422808463467-.384071339815819-13.373381070146934-.914394607288159-8.076894158239156.325485219567781-16.090114171223831.132352202974289-24.133064000179729-.313231514916879-13.041256119915488,1.324253594206311-26.016008132564821,1.608161567146453-38.997485108704495.181001239351644-8.275600093007597.492647697945358-16.959597176903117-2.097943970969936-25.108160883817618-1.03717550861893-3.262155026770415.289333742663075-4.892433760556742,2.553038026800095-6.467048967364462,7.07483793423944-4.92127350782539,17.31100974110177-.929117608378874,18.806754236719826,7.468406681276974.576046046020565,3.233779332411359,1.532322718459,3.163882313703652,3.627157540487133,1.169245970973861,2.031005823173473-1.93385301888884,4.281541947088044-3.635618723157677,6.370768108280572-5.511320587167575,6.293588058088972-5.650293022710684,12.895286679897254-8.123276627011364,21.769224504505473-5.512286730114283,5.315059633422607,1.563850700769763,8.879058775805788,3.238975203523296,9.169428901448555,8.834996857985971.287565795224509,5.541887219857017-1.707959151794057,10.32654659382024-6.607307282643887,13.382692558054259-8.491085758886584,5.296669490100612-14.701397396310313,12.584962782726507-19.460529006274555,21.281572976877214-4.109929118265427,7.510156228367123-9.777663783567732,14.070449401027872-11.834883999776139,22.811578244882185-2.477503996635278,10.526774013540489-2.598212132005756,21.152398904430811-2.973626625750512,31.800846069601903-.271044631241239,7.686450689789126-.369318123271114,15.230003512857365,2.921136875976117,22.670064929474393,1.885058714042316,4.26228794529743-1.175319263543315,8.469848076862036-4.807475827818052,10.953383179306911-2.912419066199618,1.991410794633339-6.227076656225108,1.247465512369672-9.611293833350828-.507415231582854-5.429976216844807-2.815705697224985-9.903127087907706-6.267133452060079-11.581274988087898-12.952279679906496Z" style="fill: #fff; stroke-width: 0px;"/>
      <path d="m955.658027527444574,119.365107010636166c-.249829261995728,1.451816156308269-.365660300987656,2.505809642147142-.838433831189832,3.632469249305359-6.68040276461943,15.920057798110065-14.436814917770789,31.363008344886111-21.276332951741097,47.190864154890733-8.636545158379704,19.986637133995828-19.403406014941538,38.843373897887432-29.135651838482772,58.244604481649731-1.529457424336215,3.048903695860645-2.110502494144384,6.482469217353355-4.297270582908823,9.290765282861685-2.59174997930495,3.328446126140989-5.948594453006081,3.752560056585935-8.940388262767556.7353032477331-5.698643263601298-5.747013821122891-5.77874957162021-8.033136251011456-2.013021530276092-15.096386704346514,7.642714843825161-14.334974774832517,15.547390726886988-28.551775813422864,21.536343152425616-43.707272208164795.568181728109266-1.437757635350863,1.097956322238133-2.512260738345503.103333479522007-4.100995325508848-4.967078806807876-7.934270158813888-8.609964983114878-16.639674535987069-14.207042714631825-24.221157978916381-3.315084335959-4.490617192086575-6.198362751296372-9.284664128203076-8.369707022763578-14.42317525751605-2.682646863061564-6.348654615801934-8.194192516838484-10.659949591412442-11.536588592517546-16.527799747447716-1.332544658049301-2.339374403214606-2.15195781336206-4.579776210288401-2.286260854889406-7.34426111659559-.198558786313697-4.084114449960907,1.020471453522987-6.098073651586674,5.319753838687575-5.276045761573187,1.638338600988391.313235714551411,3.022946262879486-.341961350446581,4.11261152127372-1.234974120909101,2.347590341850264-1.923894899875449,4.626535552170935-1.527251380242888,7.386179574309608-.977090028925886,5.222516729638301,1.041136937990814,7.212128197297716,3.763088732457618,8.584177336014363,8.999005328414569,2.333873508284341,8.90649143588962,8.479014945349263,16.159866648862589,13.203031461387582,24.005601598302746,2.76945917860121,4.5995859443683,6.849577045250953,8.261085126563557,8.834067561713709,13.504213561191136,1.226528775518091,3.240702088945909,3.415125775425622.921578650442825,4.318912698088752-.683283677215513,2.96539652561205-5.265737701020043,5.123389745743225-10.850469937135131,6.384545905550112-16.824291520095358,1.600784958873191-7.582898423936058,5.435036204336939-14.291156008206599,9.33896896430997-20.86874085735144,1.692779189315843-2.852076795010362,5.468749133054189-2.877249763545478,7.649359887641367-1.694066990410647,2.777445423920653,1.507015630377282,6.071863063975798,3.584892414846763,6.129412801244143,7.376714390627967Z" style="fill: #fff; stroke-width: 0px;"/>
      <path d="m557.184256322614601,118.496780333524839c10.604514510857371.028999503190789,14.02585858416569,4.17904750355774,12.925341786329227,13.907498362641491-.400897322321725,3.543538453845031-.734978424257861,7.207335078315737.66352896231183,10.795240033368827,1.255242680447736,3.220070752990068-.161736708656463,6.700178499173489-.27080077642222,9.949400903851711-.268606083052873,7.997609577376352,1.678025972769319,15.617023640164916,2.067584046010779,23.385528013428484.249768298291201,4.982056831671798.029445469386701,10.106813737014818.368159812882368,15.161445400906814.902201866340874,13.464213721797933,1.799038926664252,26.929127326671733,2.797990192415455,40.386372647388271.403274906807383,5.432766319081566-3.331727427351325,8.869481314426594-8.49773080270279,7.154843847461962-2.948387651990743-.978588691603363-7.134521401172606,1.956157988290215-8.904541604383667-2.751468602538807-.285675920377798-.759814370316235-1.195559213514571-1.470773858814937-1.138253331066153-2.147013060701283,1.461117111331077-17.247294766526466-2.923819278984411-33.899049893036135-5.468444314530643-50.687282219763802-1.952057825544216-12.878974534904046-4.900445477534959-25.651460338000106-5.126986604322155-38.695424701129014-.12320764726519-7.098275036936684-.902811503387966-14.394175754325261,2.657773671529867-21.323642035808007,2.074168126123368-4.036666941727162,4.487599269084967-5.778554204185639,7.926378961948103-5.135498589106646Z" style="fill: #fff; stroke-width: 0px;"/>
      <path d="m702.726993199402386,324.751897417797409c.38425423093031-4.169812089898187-1.684975835109071-9.558029329578858.835873355591502-12.809229664693703,2.193900842217772-2.829535995440892,7.419404793388821-3.318784696693911,11.307365062722056-4.836739803879027,8.09293180327677-3.159606940986123,16.173366047083618-6.38768070482547,25.11533936617343-5.959839136246956,1.176843356161953.056325372932406,2.773299891999159-.554459546308863,2.770800380105356,1.701567911224629-.002072765961202,1.872613249557617-1.079301428589133,2.279823482185748-2.54742936596358,2.206153180795809-9.571972243799792-.480393658830508-18.011360781072653,3.504740587561173-26.44069030706487,7.086711751300754-2.321924622157894.98668299154815-6.281090498619051-.671218301546105-7.001620524854843,3.301713635528358-1.035834307115692,5.711624081135596-1.782822581206347,11.511250851908699.130157509604032,17.178447572436198.867940264280151,2.571005272351613,2.630766750333351,1.065435052680186,3.922221871393049.264129787716229,5.858124315182067-3.634584113387973,11.758679368858793-7.216037972244521,18.24491273390322-9.609638099160293,2.875596988540565-1.061174894812211,5.969992713366992-1.562169459897632,8.993426685884515-2.178979459547918,1.289138500279478-.262973459150089,2.740135636624473-.385696435401769,2.909858590600379,1.634683432721431.130889074061997,1.558730903905598-1.034858887838709,2.135799716603287-2.086117012250725,2.268960079627504-11.100149430335478,1.406004244394353-19.574531134125209,8.618816668538784-29.277880161623216,13.097642352244293-1.215677236076772.561154080098277-1.907127575155755,1.144582699897001-1.337543681837815,3.014822432931396,2.919978565586462,9.587120121865155,11.643945676552903,15.777494658081196,21.992778409760831,13.370231596294616,7.755741552399741-1.804115997008921,14.718528197340675-5.31905053374976,21.837869636035066-8.559722192994741,1.665223594775853-.757973373523782,3.490537878179566-2.145232923308868,4.546795026380096.097131599353816.915126171744305,1.942753705858195-1.247927035879911,2.516444821962068-2.661858239746834,3.373527725278109-7.603941927615779,4.609429952008213-15.822946672280523,7.659581265528686-24.471806499015656,9.4707873824118-11.696801208554461,2.44949948406429-22.316068935958356-4.98487157883028-25.745094436062573-17.580880342311502-1.464835897319972-5.381157549500131-.783383605816198-10.830873210952632-1.037358399733421-16.531481741030802Z" style="fill: #fff; stroke-width: 0px;"/>
      <path d="m969.119606060604383,361.37212314797307c0,8.958777266276229.066511401862954,17.918558712621234-.071388498242413,26.875205899963476-.020788623314729,1.351808950395935.544954556606172,3.825834771889276-2.17420956558999,3.582701476514558-2.849504522915595-.254696581010649-1.359002905904163-2.5971443838298-1.368147461613262-3.907842810815055-.119001151638258-17.204191097829607-.049685419357047-34.409690672717261-.168137897652741-51.613881770546868-.028287158996136-4.106731323778149-.595432504124801-8.208411317515129-.862148712331873-12.315842524370964-.057976483200036-.892959518489079-.26104658366512-1.7923701331747-1.035529488591237-2.104852712673164-1.283103093509453-.517730899558956-1.425941053699717.798475302952284-2.033993044703493,1.491968144200655-3.463835775507505,3.950353100382927-6.94144934828455,8.036818244596361-12.629484927261728,8.647968320223299-4.066279105676585.436879189197498-7.498108936199969-.820262967468807-9.352868688989474-4.838900312508486-1.91401647379098-4.147020245314707-1.432098387877886-8.200864752150665,1.675587424580044-11.375230097175518,4.669454000302721-4.769764036280321,10.532760230387794-7.533389303589502,17.159332043726863-8.743974020715541,2.358624772406984-.430945397882169,5.006095577837186.686311432273214,7.015093503600838-2.26083534997997,1.210312430061094-1.775572939302947,2.60363790172778.627095237929097,2.881083721966206,1.891236225374087.383461702769637,1.747303748888953.175270651107894,3.629593642745021.176063179268567,5.454067108414165.006888898635225,16.406233099758538.004084568217877,32.812466199520713.004084568217877,49.218699299279251.261534293303157-.000152148493726.523129550311751-.000334726690198.784663843615817-.000486875183924Zm-11.35412422425361-50.206173463004234c-4.560450896239672,1.118078432027687-9.342443895479846,3.275696242844788-13.193825941972136,7.424298832509521-2.186768088765348,2.355502143711419-3.268569029249193,4.414649448419368-.868245082804606,7.218381059070452,2.310158627144119,2.698323133157828,4.72992999539747,3.120443918316596,7.750376746383154,1.11856530721343,4.399384788336647-2.915682473440029,7.050940161983817-7.196715113350365,9.714444421759254-11.551418054648821,2.041003870748682-3.337072945822001.843493818682873-4.383459006898192-3.402750143365665-4.209827144144583Z" style="fill: #fff; stroke-width: 0px;"/>
      <path d="m835.676762408063951,315.31631719717825c-.960848950294348-13.509477899127887-1.921636936882351-27.018925368556665-2.882546850881226-40.528403267682734-.023592953731168-.331379422605096-.133205694840399-.682142563502566-.060719849912857-.990669282124145.436683017000178-1.859528478969878-1.665406485890344-5.084711421401153,1.515862518180256-5.354348984641547,3.921246452117884-.332292313576545,2.159212494226267,3.30816473172672,2.31204850199083,5.23594702565606,1.160748938112192,14.642649461880865,2.197009991159575,29.295523302640504,3.162797001537001,43.952444293374356.098517346848894,1.496319591164138.48667325488168,2.76630308082531,1.716128288227992,3.278404486061845,1.84128677404442.766919705041801,1.924989940642263-1.285563495574024,2.677343020749504-2.177305826102383,3.813218767330909-4.51993620711437,8.307889826163773-4.510198703421338,11.670221033292364.305605467514397,3.932158955263731,5.631867839936604,4.366830170008143,12.590683566148073,6.745085255339291,18.823629251330203.294027947926224.770692987724033.387119525053095,2.068124065925076-1.169100965660618,2.177366685498782-1.437889939827983.10087445233512-2.288028802326153-.241307513431821-2.989599116390309-1.814188227392151-2.005827813118231-4.497296511024615-2.012716711753455-9.6416805722547-4.729015539827742-13.892100934925111-1.012424244497197-1.584109272907881-1.195681140923625-4.317122262977136-3.56253601346998-4.091120888166188-2.626743145820001.25083200923109-3.85412541320602,2.501442980334105-4.717371472222112,5.021022061297117-1.765204070537038,5.151778478095366-2.822802420241715,10.443959587588324-3.645995325248805,15.789240521913598-.216543079211078,1.406521549281024-.550746108555359,2.026891823719779-2.068498501583235,2.016667444841005-1.562804570825392-.010559105568973-1.916515985684782-.745436337516367-2.029298839440344-2.115959552826098-.703155370387321-8.541190506275598-1.473614670800089-17.076842807324283-2.221761255281308-25.614351320014975.092299048965288-.007272698072484.184659061635102-.014575825840438.276958110601299-.021878953612031Z" style="fill: #fff; stroke-width: 0px;"/>
      <path d="m637.624767370834888,334.08772908494484c-3.634778003578504-.113502777439862-6.926635168034409.461101229637279-8.871255421599926-3.353839709994645-1.854576861676833-3.638113958477334-.29920986282832-6.28208964913938,1.691377024106259-9.014068029442569.843067072749363-1.156998017104343,1.786724258308823-1.934415968318717.119427897571768-3.575976513024216-4.216676565251873-4.151432551676407-3.724272722126443-7.697831397232221,1.213665433820097-11.239178912743228,1.168186510089072-.837760044421884,2.529140254544473-1.589799626632157,3.911431295655348-1.913906351164769,4.40145755429694-1.032084102524095,5.798501811954338-3.798782769437821,5.184841160114047-8.009857531240414-.141374831275243-.969642360085345-.126255832502466-2.012620294868611.072668736041123-2.968782298274164.268484155642909-1.290371388022322,1.22335866287267-1.875169344279129,2.569924973010529-1.814614243179676,1.422953832167877.063993657093306,1.424477924785606,1.131650077801169,1.480015859797277,2.09964923413645.056818172810381.991156157309888.097176145343838,2.003126228766632-.035297985039506,2.981714920369996-.484295670397842,3.578167451356421.374987747810337,6.179967579142613,4.479125314126577,6.706249224134808,1.472700215229452.188816282576227,2.685329266068948.986378694557061,2.306622732268806,2.604325792803138-.461251390007419,1.970962036873971-2.138119052387083,1.815587993549343-3.592469192492899,1.286354667750857-5.194595352871147-1.890353764101746-9.634886787082905-.59535706182578-13.606672150423947,2.981623631269031-.793259725982352.714458903890772-2.405505861345773.9407950053901-1.798063507388179,2.499130323207282.53099386822214,1.36230719656669,1.724419352070981,1.916401586486245,3.215225787606869,1.755915353720411,2.277360153997506-.245050366414944,4.58764070855068.431188835473222,6.863720624749476-.591644638541766,1.659066260598593-.745588486011911,3.888143160446816-1.187427716151433,4.600443086545056,1.078215526278655.638229024847533,2.030026082720724-1.549758338011998,2.710677590968771-2.989294297866763,3.224422199953551-4.041040131917725,1.44215472686119-8.171148236448971,2.63259498322077-10.978648766803417,6.224729666439089-.800209588322105,1.023868083782872-2.111599840829513,1.919231548497919-1.303708825710601,3.425532080946141.674441465458585,1.25759860215112,1.9157234575232,1.57260684666835,3.370195525037161,1.631914330107975,4.896909582661465.199710114837217,9.297147862864222-1.697186034560218,13.827238834147465-3.051551079675846,2.008693107241015-.600560540362494,3.955629981586753-1.438077147189688,5.991390973728812-1.9026777922154.968164594861264-.220950044769779,2.561572945462103-.559237009058052,2.570412682647657,1.29399252220901.005059987493041,1.063730989531905.150458423280725,2.375281448090391-1.53506608517182,2.654626085328346-1.131059613906473.187446946118143-2.219078852273014.638567234469519-3.323314436097462.981540372409654-6.497023940782128,2.017945492199942-7.252303278715772,3.008249617936599-6.773433378040863,9.584655316244607.133693404478436,1.83527600882735.756315720915154,3.957138923269667-1.758741917835323,4.267552283232362-2.981795762185357.368047209954966-1.056866785247621-2.477190510195214-1.901823732844605-3.610544651142845-.273787997954969-.367286467477243-.4889898756619-.978497402506036-.387058561348567-1.393984513273608,1.114843268448567-4.542545473505015-.6423135930645-6.048359130771132-4.612879682310449-4.841517266628216Z" style="fill: #fff; stroke-width: 0px;"/>
      <path d="m469.866399261634797,346.792463163116736c-.132291239269762,3.350066427312413-6.42807399072899,11.328855235829906-9.560419621751862,12.119388387331128-.968103631155827.244320053636329-1.973120785528408.170984478936589-2.727638077154552-.712024527963877-1.109082198350734-1.297978812785004-.14844662102314-2.08218258688612.686146496768743-2.903419304724594,1.297521009679258-1.276891031346167,2.646800204677675-2.50482067692792,3.893081220529893-3.829547195171472,4.859020640169547-5.164741529890307,4.577916997646753-7.073383543120144-1.645928582228407-10.714783909093967-6.603527532949556-3.863598028405249-14.231611087639067-4.520453511999222-21.383324253546562-6.662734754499979-7.716115144323339-2.311348650397122-10.817552177046309-9.443765809661272-6.845157176659086-16.521348651247536,3.234002608664923-5.761954803356275,8.223302685848466-9.604008604837873,14.121845937269427-12.499394469014078,3.888417497118098-1.908733302323526,8.032211953363003-2.75714374141171,12.157930671152826-3.752438337789499,1.485319702110246-.358309706260115,3.086165624687965-.471599475808034,3.484685362526761,1.639460895472439.436743980704705,2.313661307522125-1.183153099601441,2.090368175928234-2.706910417545259,2.340652450577181-8.691900202276884,1.427548471319824-16.011446447312665,5.524816158693284-22.015517871625889,11.885140564079848-4.896391391170255,5.186924780493428-3.054098715998407,10.840854152238535,3.790540269170378,13.034652875221582,7.728978486021333,2.477251369593432,15.805724425691551,3.779033894756139,23.191355326658595,7.493678546334195,4.104899612625559,2.064563791138426,4.759924138126735,5.504610838528606,5.559310716434993,9.082717430488628Z" style="fill: #fff; stroke-width: 0px;"/>
      <path d="m493.664434895943486,330.883968650642601c-2.15598141787541,2.873506910562355-4.031285939160625,5.508597129104601-6.05049528546715,8.028876093147119-2.386332776207382,2.978550231666304-5.577020672659273,4.590563538598872-9.132149596003728,2.74001182084794-3.268873847772738-1.70153748152552-3.908169737453136-5.233177923042604-3.349406901724251-8.617051745995923,1.204673287371406-7.295398627353279,11.139074755807087-17.235290250253456,18.374033860526652-18.783918494074896,1.743074245720891-.373068110297027,3.117196150396921-.016736334473535,3.371506244689954,1.814036078896606,1.14404488301534,8.234763436887079,2.174971611899309,16.485380746977171,3.201844254417665,24.735876338270828.163413210536419,1.312858935618351.234222553584004,2.925937282017912-1.523604908681591,3.131216031777512-1.968548507673404.229896376289616-2.478509897762706-1.363889540914897-2.509540423472572-2.935340059022565-.067486821139028-3.415368561463765-.377426296000522-6.741973690812301-2.382187244284978-10.113706063846621Zm-12.187437104245873,7.008050979267864c.32316859878938-.226488249994873.602778630545799-.398902924787762.856265714824985-.603603510266112,4.839237917983155-3.907781951418656,7.818534168274709-9.176319184753083,10.453507414234991-14.628956097309128.657066809610114-1.359720672149706-.330484243356295-2.52405224672475-2.031249677991582-2.236126434358084-3.632491864650547.614862498912771-11.685187622803824,10.191697382500934-11.723350901967024,13.788731247268515-.019355976251973,1.825295067543266.515661496482608,3.205464497448702,2.444827450898629,3.679954794664809Z" style="fill: #fff; stroke-width: 0px;"/>
      <path d="m887.967221832218456,331.230654211866749c-2.455983808865312,2.891886448785954-4.126755100772243,6.305459658007749-6.916088447115726,8.908081387668062-2.36740354588801,2.2091048616021-4.853442461186205,2.784226173560455-7.635338235551899,1.584230991704317-3.148592458334861-1.358168757496969-4.030554374704479-4.291074440594457-3.784200043878627-7.374881001260292.630059888413598-7.888017016264712,10.810815687673312-18.762374267151245,18.708114962463696-20.162688157826778,1.565974683469904-.277731863187,2.963323759650848-.135320871653676,3.212177602369593,2.000448415250503.965421228148443,8.286159198572932,2.043137600414411,16.559537923551034,2.957288352882642,24.851052749158043.115343329354801,1.046568639270845.942559838873422,2.805374814399329-1.35461351916274,2.995895160122018-2.11824488464481.175670652588451-1.678757537226375-1.701385333028156-2.136412068654863-2.70891266842591-1.432159351583323-3.152942836895818.724492667043705-7.373602953899535-3.050928603352077-10.093226876389963Zm-12.017409331745512,6.728615052934401c.391935657727117-.283574365405002.781127948741414-.590975185163188,1.194949576467479-.860734467200018,5.388886679854295-3.512317582622927,7.412150112525524-9.423225762806396,10.270006662988635-14.683942563486198.61433125259282-1.130798046227937-.694132742086367-2.939661076286939-2.286504709707515-1.990163176971691-5.203678944875719,3.102855552268011-9.303488088155973,7.359392284446585-11.433803786338103,13.132027912168269-.698034419190662,1.891357944170522.206788886453069,3.567121470603524,2.255352256589504,4.402812295489639Z" style="fill: #fff; stroke-width: 0px;"/>
      <path d="m512.875530904304469,303.661742462764778c.994378987896198,13.554331275519871,2.11123405860053,27.013265444533317,4.000072522336268,40.428411276618135.178440763752405,1.267883840428112,1.368574207546772,3.517794928451622-1.375889852114597,3.966298262683267-3.066718202877382.501116283881856-2.289857713467427-1.772286531806458-2.541881668832502-3.476714834740051-2.650153208439406-17.926044418585661-2.933024798399856-35.98229751938743-3.058853884967903-54.047253514114345-.044991214092988-6.456725691961765-1.507144708403757-12.852652845231205-.866416171662422-19.323041472063778.133632440774818-1.349648441764657-1.406310740775552-3.722678092126444,1.435268500524217-3.879786628298461,2.919368928538461-.161338264337246,2.323692569594641,2.479746604914908,2.34173782619564,4.030474497971227.125036558407373,10.766027522286095.065962728521299,21.534154693805249.065962728521299,32.301612411944006Z" style="fill: #fff; stroke-width: 0px;"/>
      <path d="m985.65223121967756,320.876979541349101c1.631754520877621-.170619322549101,3.747560857334065.586562878797849,4.541978893706073,2.841860023552726.764362929940035,2.170215706224553.815755333029301,4.627018318058617-.990050564860212,6.513537940079914-1.810439139449954,1.89141880356874-3.683061257725967,3.708345703875239-6.070582826176178,4.96557914963887-1.003340652491715.528381294225255-2.684536737907365,1.360755281913953-1.879267162093129,2.86809042413006.830569513279443,1.554622894534987,2.307232369317717,1.933381358552651,4.197290107148547,1.066439232747143,5.714371899422076-2.621183846076747,9.946045536038582-6.964566939330325,14.007569472746582-11.537024806999398.861234256759417-.969581500687127,1.417954808379363-2.27355496418204,2.410382957724323-3.044552248897162,1.064670139453483-.827109649755585,2.473785210646383-.923480506631677,3.653189042407575.107386407931699.648105145013687.5663879883341,1.242684157273288,1.282398806872152.529469775603502,2.093258997336306-5.829410410252422,6.627375444209974-11.073081545433524,14.010229026620436-20.139055039951018,16.703044384250461-5.54251521578044,1.646246718360999-8.973247699617787-.727087228991877-9.438949440072065-6.485938203044498-.303843104387852-3.757520097531597-.585556383957737-7.508132653381836.858856672276488-11.211792183601574,1.399482805844855-3.588604838132596,3.844493147857975-5.11584100352411,8.319168111539511-4.879889117124549Zm.450338886861573,5.715640801407062c-.268728010462837-.780217483525121-.787833956262148-1.531465893558561-1.884997750338698-1.490203221654156-2.255900929931158.084838000937452-2.836763108625746,2.091037629306811-3.646665926000423,3.58674862648877-.493806008335014.911947650693037.769605808546657,2.266373555206883,1.384668625595623,2.053456950985492,1.876097049446798-.6494914964278,3.321241670138079-2.05704765547307,4.146995050743499-4.150002355820106Z" style="fill: #fff; stroke-width: 0px;"/>
      <path d="m524.981703390139955,332.779830190272151c-.287992541157109-2.66396800293478.311341640070168-5.605241853270854,1.807512881621733-8.497554317844333,1.682293432101687-3.252021936987148,4.452362247749079-3.576219950617087,7.524445256643958-3.451853770620801,2.377340629759601.096249138081475,4.115842597624578,1.227716637689809,4.692193462167779,3.591799956531759.728455307852528,2.988044297770102-.282383880321504,5.530780379707721-2.597175749026064,7.466687403280957-1.498548826036313,1.253247155185818-3.244488365878169,2.209774314982496-4.760655702581971,3.444702791344753-.879584331884871.716436834325577-2.760680405120183,1.235476210942579-1.816169727694614,2.800414773453667.889948161689063,1.474501496948506,2.487136261983323,1.73494929107801,4.238745426365313.963404271780746,5.244402699638158-2.31022275153191,9.253436886569943-6.128815255047812,12.99313342599271-10.308364848642668,1.319864207464889-1.475110090927046,2.587360592565346-3.010592704760711,4.030371483589988-4.356559152940463.749487785983547-.699031046471646,1.813914070618011-.602721048993772,2.737209378797161.00681625258585,1.212568087134969.800574952187162.585312529138719,1.767752506648321.100894931331823,2.525604161375668-4.890935139595967,7.651639114079444-11.186047290303577,13.883093744007056-19.885141209738322,16.840099748751527-5.732173301204966,1.948474489277942-9.065790603403002-2.235030965191982-9.065363857469492-11.025197269056662Zm8.044404694309378-7.816415934408724c-2.140862419100813.527407543853769-3.18614610044915,2.228549439292692-3.877535475824516,4.077610101790924-.156128047819948.417738908494357,1.149592580146418,1.867866216507537,1.243049939502271,1.818783111946686,1.752035910315499-.919676794252155,3.631424999817682-1.877299423213117,4.333117241291802-3.849539507446025.380718336055907-1.069908218438286-.611100176241962-1.727098428724275-1.698631704969557-2.046853706291586Z" style="fill: #fff; stroke-width: 0px;"/>
      <path d="m903.540948879549433,316.312555114228417c0-1.16028442460447.0093274468245-2.320660138306266-.002621439302857-3.480822844112481-.011339249080265-1.095560454734368.286407484833944-2.121436898652973,1.564999264194739-1.952339061057501.997610064247965.131912745360751,2.504510917831794-.019535866787919,2.432451818837762,1.77609024418598-.033164255373777.827200938851092.015423817298142,1.657323128811186.008169136434844,2.485954263518579-.011461176490229,1.306894714605733-.332252190793952,2.968904017070599,1.149897398669054,3.463295337462114,1.360283143702873.45373724246565,1.572071053944455-1.257720320945737,2.277116299179397-2.066420002780433,2.985026838536214-3.424162744488058,8.195167936113648-3.607958126722224,11.19933737793599-.221193482360832,4.09481011949083,4.616185345195845,5.702666868113738,10.586431438518048,8.236257473103251,16.040985422117956.586105057300301,1.26173704122084.165211639826339,2.756900303818838-1.306025446490821,3.316563328662596-1.715152868951009.652412747534981-2.113855497904296-.685337681901729-2.660578001947215-1.983012197695643-1.96321418350999-4.659943252423545-3.726406451792172-9.378889691295626-6.79830656957256-13.554300845820762-2.047953733087525-2.783739298376531-3.428842608990635-2.383953912318248-5.40766350091144-.272437095552959-3.910577803788328,4.172642051909861-3.190413559780609,9.760751984618764-4.584165777381713,14.696662177686449-.414309337364102,1.467350517670639.39358167775481,3.57080346418843-2.266752469374296,3.52406344645533-2.905347276449902-.051061034999293-1.649860741182238-2.300606966633495-1.834336911703758-3.67459916763255-.807951978824349-6.01643837647498-1.512448550715817-12.046691836312675-2.254437801018867-18.071954825511057.082240037684642-.008855042420691.164419111663847-.017679655144093.246659149348488-.026534697564784Z" style="fill: #fff; stroke-width: 0px;"/>
      <path d="m797.508789040077318,332.272536677485732c.49557395577358-6.493880354497378,4.22374835500159-12.698648138361023,10.850564023159677-17.226709075122926,1.271093243678479-.868524470155535,2.981186125138265-1.753906993582859,3.963311408383561-.363421895701322,1.165808925604324,1.650719884120917.342433129482743,3.227769466851896-1.494586185229309,4.475265408917039-4.910382561407459,3.334638569898743-7.886874481280756,7.9534408692125-9.333177412360783,13.807993246764454-.592567210002926,2.398651456956941.07041307896634,3.603241523371253,1.54482027792892,5.067457782040947,1.73313716184839,1.721012488913402,3.625206701934985,1.522549991739652,5.456068682469777.548069309508719,4.537040833622996-2.414870486549262,8.399457310672915-5.708368103336397,11.834518217546247-9.518196853528934,1.081557085664826-1.199508306672215,2.233344359180592-2.968812727973273,4.065242722695984-1.607601000570867,1.984429552757319,1.474653645442231.924209763749786,3.256890688835483-.340848073160487,4.677409899675695-3.958129493480556,4.444683561378042-8.317217272989183,8.43909886597794-13.946788659128288,10.666278968814368-7.931073167211252,3.137667127975874-12.808657255471189-.380401667765909-12.5991250023053-10.526545790797172Z" style="fill: #fff; stroke-width: 0px;"/>
      <path d="m772.734785456702411,326.924699648438946c.069010913757666-1.71337463445343-.87367085252481-2.333379752504698-1.90913937741152-2.936344239089522-2.27918906513969-1.327221753566846-4.592212986406594-2.610746459306029-6.774713615839573-4.084426354378593-1.539333544503279-1.039448089693906-2.138728689435993-2.844750844964437-1.048453793995577-4.297738544684762.933171428345304-1.243570510891004,2.202435760882508-.219702427108132,3.369402996876488.551233998206953,3.105308227974092,2.051509450247977,6.361501625161509,5.758577106762459,9.605136499174478,5.158594730683035,3.055257026388063-.56520123007067,4.623975076571696-5.201013731151761,6.518178346324021-8.275082788122745.883364081577383-1.433603981429769,2.149031555534748-2.622157596446414,3.555220368901246-1.71337463445343,1.307305684289531.844911023694294.952314031630522,2.656847453357841.078704142810238,4.000592533506278-1.335409952171176,2.05409597466678-2.598699841644702,4.176932639475126-4.140228079517328,6.069568631006405-1.69857074126412,2.085408134982572-1.428989238936083,3.451093028144896.940182254388674,4.632404374788166,2.051062882029328,1.022681325521262,4.088287003085497,2.095206498077459,6.02748148693081,3.311329420428592,1.307305684289531.819867381380391,3.306305562477974,1.562473756886902,1.867866949306517,3.756181190774441-1.341323431530327,2.045727807428193-2.887972620600522.750365948762919-4.286540970875649.0375806783195-1.166662417471343-.594596319348057-2.226333533136312-1.395171271535219-3.352150268437072-2.073418833559117q-5.87440162434541-3.538730561394914-9.437120528928972,2.475699454940695c-.420100889314199.710046597527253-.689133718299672,1.525379953751326-1.186292730395508,2.170459143815606-1.093201153268637,1.418541280403588-1.594688588400459,4.558764503099155-4.105356840410423,2.957006004744471-2.020276211139389-1.288880332769622-.41711366778145-3.593138863288914.507949587832627-5.289381577182212,1.23859958905723-2.271303166449798,2.606320304736983-4.472526736000873,3.769873573266523-6.450883189743763Z" style="fill: #fff; stroke-width: 0px;"/>
      <path d="m576.627471636745213,308.103900359120416c1.50220664832068.111981292488053,3.0470269262496-.269424555348451,3.205410631144332,1.734310267398541.138387609744314,1.751898633445307-.825875308015384,2.272489924715046-2.420868714938479,2.32562017924829-4.142605664002076.137998685169805-7.250230512755479,2.714633451845657-10.536966726013816,4.747915512363761-1.884997750337789,1.166126926818833-3.292040055570396,3.192684023852053-2.732880955762084,5.398137321568356.440584694104473,1.737779253089684,2.326801718536444,2.442683231476622,4.279834963355825,2.845663735935887,3.320753960500042.685215963105293,6.568900148662578,1.753146251105136,9.811132857465964,2.775553709334417,2.963201832241793.934435198287247,5.549221223302084,2.596657508647695,5.601650009371951,5.992490203323541.057366846152945,3.718570082754013-2.22700413388884,6.398331099495408-5.104369069866152,8.553301526495488-1.438255722056056,1.07715048681348-2.598882732758284.21352519820357-3.436219217263897-.78319959403234-.940852855141202-1.119965073368803-.126865469548648-2.00117872802366.757595958713864-2.930836463561718,4.677684100442093-4.916678623272674,4.400725989840794-5.904304935491382-2.212433808456808-7.981192754741642-2.181951956091325-.685215963105293-4.407371033657-1.286324238051748-6.654493190107132-1.701598340925557-9.060242906271924-1.674394189976738-8.450849713763091-9.735404045313771-4.564230645934003-14.035424817428066,3.768349480647885-4.169233925616936,8.833457924665709-5.961117183607712,14.006837908290436-6.94074048497896Z" style="fill: #fff; stroke-width: 0px;"/>
      <path d="m290.288967234037955,227.336282468636455c2.419588477139769,1.112601086198993,4.163577178430387,3.101486215808109,6.227168101781899,4.668357064208976,1.344402098620776,1.020794684180146,1.641752568454649,3.765203596540232,5.310365428159457,1.948352770483325,2.475979904017549-1.226210367585736,2.807652939615764,3.567319263647732,2.849291149947931,6.376360856782412-8.097168780755965-.574588792225768-9.759984309193896-8.545891894777014-14.850788954758173-12.437530890852941.154146727417356-.186990500633328.308384900390593-.371820492637198.463964274868886-.555539800621773Z" style="fill: #1c9149; stroke-width: 0px;"/>
      <path d="m185.740221980902788,120.787102061879523c-1.200451550819707-.144891012005246-1.424706538678947-.102350292738265-1.521745515687144-.194004546263386-1.68881654850793-1.595398691255468-4.890843694040086-1.767828580896094-4.790954663835691-5.010303199809641.008915941816667-.289569016116729.671972435417047-.845276180083602.945516578552997-.796672343283717,3.072585959459502.54596966027384,3.674831157587505,3.236852732014086,5.367183600969838,6.000980089356744Z" style="fill: #1c9149; stroke-width: 0px;"/>
      <path d="m321.286450615059039,266.981265928478933c-4.31248102724021-2.03988530521201-6.766818816076011-4.17355494288131-9.141355115419174-8.443024297153897,4.168240901843092,2.271059728860564,6.752736200284744,4.259762280276846,9.141355115419174,8.443024297153897Z" style="fill: #1c9149; stroke-width: 0px;"/>
      <path d="m278.125610793163105,218.556827418832654c-3.107746776162458-1.099790182899596-5.079130096107292-3.712529787491803-8.828154082354558-5.840782938730626,5.364196379437999-.362813301720962,7.394226783334489,2.634238186967195,9.739835804781251,5.088073903143595-.303904068093289.250892868629307-.607808136185668.501800952109988-.911681722426692.752709035587031Z" style="fill: #1c9149; stroke-width: 0px;"/>
      <path d="m379.469143547194108,298.266100376519717c.579612422747232-1.23718027409268,1.140417542583236-2.488753795831144,2.489574810172599-3.342550291650696.431440138393555,1.956873086215637-.624481709430256,3.156898697772704-1.665528413299398,4.362645092751336-.274671971674252-.340051886832953-.549343943346685-.680073343966797-.8240463968732-1.02009480110064Z" style="fill: #1c9149; stroke-width: 0px;"/>
      <path d="m311.55057745108661,257.551284772484905c-1.942699896867452.06390236799416-3.033889247879415-1.014921752264854-2.909370880962342-1.719917019749118.162529236817136-.920102810037861,1.235490440114518-.422851097935563,1.802757712652237.211912424150796.292381927898532.327149694439868.524562197373598.707946948294193,1.106613168310105,1.508004595598322Z" style="fill: #1c9149; stroke-width: 0px;"/>
      <path d="m324.362587710318621,269.09077438510667c1.080673111945543.098166209119881,1.768099846512087.742728094302947,2.278061236602298,1.633892260548237-.181946176775455.219489419214369-.365782228396711.437426923777821-.551477673013324.653782083991246-.818925445674722-.509241013525752-1.637850891351263-1.018512456750614-2.456745855173722-1.527783899975475.243397591145367-.253296814855275.486764700438471-.506593629710551.730162291584747-.759890444564007Z" style="fill: #1c9149; stroke-width: 0px;"/>
      <path d="m326.640648946920919,270.724666645654906c1.070857955483916.608563551209954,2.206002137607356,1.153711609607853,2.637228903035066,2.888995627374243-1.803824577486012.069136276233621-2.408767419548894-1.22506925387097-3.188706576048389-2.235213543382997.185695444616613-.216355160213425.369531496237869-.434292664776876.551477673013324-.653782083991246Z" style="fill: #1c9149; stroke-width: 0px;"/>
      <path d="m387.080766901604875,303.088020916961796c.118208623477585-.871384861864499.236386765101997-1.742769723732636.392789149594137-2.89584230966102,1.017880496070575,1.340154375660859.721871227740849,2.380271918735161.282444844026941,3.424193174187167-.241263861479638-.154187285063017-.466768605286234-.330405672235429-.675233993621077-.528350864526146Z" style="fill: #1c9149; stroke-width: 0px;"/>
      <path d="m331.656102453433959,276.858624519841214c-.440462766694509-.624143557122807-2.148117099964111-.790411432706605-1.000170539845385-1.930277529250816.426380150900513-.423368402820415,1.334769833270911.445886380113734,1.600266767382891,1.256290125091255-.219347409628426.207530547490023-.419399806709407.432193015541998-.600096227537506.673987404159561Z" style="fill: #1c9149; stroke-width: 0px;"/>
      <path d="m323.632425418733874,269.850664829670677c-.541936853222069-.51462707025712-1.861313351048921-1.0162302293229-1.302093287535172-1.667182351302472.976120358329354-1.136244962359342,1.539546917469124.125248641270446,2.032255579119919.907291906738465-.243397591146277.253296814853456-.48676470043938.506593629708732-.730162291584747.759890444564007Z" style="fill: #1c9149; stroke-width: 0px;"/>
      <path d="m279.037292515589797,217.804118383245623c.375841239677356.547156418535451,1.695553037880018.911780287347938.774056158991698,1.718152097204438-.643959613092193.563497166924208-1.280816954583315-.327347487482257-1.68573788141839-.965443061617407.303873586241025-.250908083477043.607777654333404-.501816166957724.911681722426692-.752709035587031Z" style="fill: #1c9149; stroke-width: 0px;"/>
      <path d="m288.760637638240041,227.142140988725259c-.507614287457727-.581800630900034-1.015259056767718-1.163601261800068-1.522873344224536-1.745401892698283.200905888946181-.172886335127259.386723260971849-.360652793087866.557421634223829-.563299373881819.510296690466021.49210909296562,1.020593380931132.984202971076229,1.530920553249416,1.476296849190476-.188499775033961.277473210746393-.376969068214748.554931206643232-.565468843248709.832404417389625Z" style="fill: #1c9149; stroke-width: 0px;"/>
      <path d="m353.253775092821343,294.069266713867364c-.246781076758452.043697047829482-.493592635369168.087424525358074-.740373712126711.131121573187556.042034474413413-.219458989517079.084068948826825-.43888754933505.126103423240238-.65834653885031.178166427081123.215898714726791.35636333601451.431827859156328.534560244948807.64769614418401.000030481852264-.000030429699109.079710043937666-.120471178521257.079710043937666-.120471178521257Z" style="fill: #1c9149; stroke-width: 0px;"/>
      <path d="m334.182377413855647,278.247496843673616c.235533273235887.232604619503036.471066546469956.465178809308782.706599819705843.697783428809998-.142746514631654.034294270826649-.313597297145861.136416340821597-.423392929368674.091136948642088-.476888580272316-.196728004328179-.555928023459273-.516909297684833-.201546007847355-.914108159326133.000060963705437.000395586088416-.081660882489814.125187781874047-.081660882489814.125187781874047Z" style="fill: #1c9149; stroke-width: 0px;"/>
      <path d="m333.235001442308203,277.195785585262456c.623140507927019.074826629956078.96865230450021.398811635692255.947375971547444,1.051832977207596,0-.000121718796436.081721846195251-.124913914582066.081660882489814-.125309500670483-.729095426750973.831552385816394-1.111551228392273.026260830276442-1.587098607160442-.335913447761413.195693492191822-.188572844985174.381449900512962-.385270419614244.558061753123184-.5906100287757Z" style="fill: #1c9149; stroke-width: 0px;"/>
      <path d="m332.256198680971465,276.184637115681653c.326277747729364.337039346628444.652555495459637.674078693256888.978802761336738,1.011148469580803-.176611852610222.205339609161456-.362368260931362.402037183790526-.558061753123184.5906100287757-.340726145752342-.309165742302866-.680629281489018-.618818359789657-1.020715308341096-.928136250586249.180574493418135-.241429232228256.380626890499116-.466091700280231.599974300127542-.673622247770254Z" style="fill: #1c9149; stroke-width: 0px;"/>
      <path d="m287.237764294015506,225.396739096026977c-.422356546388983-.095579684702898-.93039757978022-.207895703879331-.581929043527452-.762674762027018.076478967587718-.121764440729748.74293418772595.125796375854407,1.138527667737435.201322888884533-.169875363238134.200699080054619-.355692735263801.388465538015225-.556598624209983.561351873142485Z" style="fill: #1c9149; stroke-width: 0px;"/>
      <path d="m289.32610648148875,226.309736571335634c.32094342356595.34218196576694.641917328983254.684363931533881.962860752549204,1.026545897300821-.155579374478293.183719307984575-.30981754745153.368549299988445-.463964274868886.555539800621773-.355540326001574-.249401813376608-.709891859760319-.49986866621839-1.064304357224501-.750000792373612.188438811329434-.277153698905749.376908104510221-.554611694802588.565407879544182-.832084905548982Z" style="fill: #1c9149; stroke-width: 0px;"/>
      <path d="m240.251467241062528,119.619773161947705c.372137694615049,2.27562418371781-1.475778882318991,3.04624109719407-2.825926810109195,4.154308158234926-.207154668682051-.219519848913478-.423987325490089-.429058756541053-.650482729499345-.628616722880906.961351900858062-1.384673025364464,1.861191423639866-2.833096270231181,3.574149599222437-3.439195015816949-.000274336673101-.000243437592871-.097740059613898-.08649641953707-.097740059613898-.08649641953707Z" style="fill: #1c9149; stroke-width: 0px;"/>
      <path d="m236.959122366968586,125.17546025032334c-.629069228211847.496430110228175-.894596644174271,2.166168556250341-1.940489962570609,1.228386091068387-.976699513524181-.875721093980246.278284071178859-1.514653484839073,1.020959163160114-2.01370054918516l.919530799410495.785314458116773Z" style="fill: #1c9149; stroke-width: 0px;"/>
      <path d="m236.039591567558091,124.390145792206567c.245759934703528-.414574219794304.491519869407966-.829163654438162.736380589467444-1.244209534568654.22558094843771.199086306003665.442413605245747.40862521363124.649568273927798.628145062544718-.155899433928425.466974161552571-.311783626929355.933963537952877-.467042941957516,1.401165922246946-.3058853884977-.261558478145162-.612395654967258-.523329964184086-.918905921437727-.78510145022301Z" style="fill: #1c9149; stroke-width: 0px;"/>
    </g>
  </g>
</svg>